<?xml version="1.0" encoding="UTF-8" standalone="no"?><!-- Generator: Gravit.io --><svg xmlns="http://www.w3.org/2000/svg" xmlns:xlink="http://www.w3.org/1999/xlink" style="isolation:isolate" viewBox="0 0 500 500" width="500pt" height="500pt"><defs><clipPath id="_clipPath_XYFesO6YH9Ce7RnJzcWekdOGPbzXm0TO"><rect width="500" height="500"/></clipPath></defs><g clip-path="url(#_clipPath_XYFesO6YH9Ce7RnJzcWekdOGPbzXm0TO)"><g><linearGradient id="_lgradient_2" x1="0.1464466094067262" y1="0.14644660940672627" x2="0.8535533905932737" y2="0.8535533905932737" gradientTransform="matrix(456,0,0,456,22,22)" gradientUnits="userSpaceOnUse"><stop offset="1.3043478260869565%" stop-opacity="1" style="stop-color:rgb(216,126,0)"/><stop offset="98.26086956521739%" stop-opacity="1" style="stop-color:rgb(178,56,9)"/></linearGradient><path d=" M 250 478 L 250 478 C 124.163 478 22 375.837 22 250 C 22 124.163 124.163 22 250 22 C 375.837 22 478 124.163 478 250 C 478 324.401 442.286 390.527 387.074 432.147 C 382.295 432.715 377.431 433 372.5 433 C 303.235 433 247 376.765 247 307.5 C 247 238.235 303.235 182 372.5 182 C 381.593 182 390.462 182.969 399.002 184.829 C 382.723 179.111 365.222 176 347 176 C 260.349 176 190 246.349 190 333 C 190 396.367 227.623 451.017 281.73 475.81 C 278.751 476.224 275.754 476.581 272.733 476.86 C 265.259 477.62 257.674 478 250 478 Z  M 234.518 477.479 C 144.001 454.343 77 372.184 77 274.5 C 77 158.874 170.874 65 286.5 65 C 316.793 65 345.593 71.443 371.602 83.033 L 331.799 151.975 C 325.87 151.331 319.849 151 313.75 151 C 222.408 151 148.25 225.158 148.25 316.5 C 148.25 393.685 201.203 458.6 272.733 476.86 C 272.74 476.862 272.746 476.864 272.752 476.865 C 265.27 477.62 257.679 478 250 478 L 250 478 C 244.797 478 239.634 477.825 234.518 477.479 Z " fill-rule="evenodd" fill="url(#_lgradient_2)"/><path d=" M 281.73 475.81 C 227.623 451.017 190 396.367 190 333 C 190 246.349 260.349 176 347 176 C 365.222 176 382.723 179.111 399.002 184.829 C 390.462 182.969 381.593 182 372.5 182 C 303.235 182 247 238.235 247 307.5 C 247 376.765 303.235 433 372.5 433 C 377.431 433 382.295 432.715 387.074 432.147 C 356.903 454.908 320.903 470.342 281.73 475.81 Z " fill="rgb(255,255,255)"/><path d=" M 234.518 477.479 C 144.001 454.343 77 372.184 77 274.5 C 77 158.874 170.874 65 286.5 65 C 316.793 65 345.593 71.443 371.602 83.033 L 331.799 151.975 C 325.87 151.331 319.849 151 313.75 151 C 222.408 151 148.25 225.158 148.25 316.5 C 148.25 393.692 201.212 458.611 272.752 476.865 C 265.27 477.62 257.679 478 250 478 C 244.797 478 239.634 477.825 234.518 477.479 Z " fill="rgb(255,255,255)"/></g></g></svg>